<?xml version="1.0" encoding="utf-8"?>
<!-- Created with Inkscape (http://www.inkscape.org/) --><svg height="156.06541" id="svg3681" inkscape:version="0.48.2 r9819" sodipodi:docname="North Jeolla.svg" version="1.1" width="218.37436" xmlns="http://www.w3.org/2000/svg" xmlns:cc="http://creativecommons.org/ns#" xmlns:dc="http://purl.org/dc/elements/1.1/" xmlns:i="http://ns.adobe.com/AdobeIllustrator/10.0/" xmlns:inkscape="http://www.inkscape.org/namespaces/inkscape" xmlns:rdf="http://www.w3.org/1999/02/22-rdf-syntax-ns#" xmlns:sodipodi="http://sodipodi.sourceforge.net/DTD/sodipodi-0.dtd" xmlns:svg="http://www.w3.org/2000/svg">
<defs id="defs3683"/>
<sodipodi:namedview bordercolor="#666666" borderopacity="1.0" fit-margin-bottom="0" fit-margin-left="0" fit-margin-right="0" fit-margin-top="0" id="base" inkscape:current-layer="layer1" inkscape:cx="111.89765" inkscape:cy="76.872779" inkscape:document-units="px" inkscape:pageopacity="0.0" inkscape:pageshadow="2" inkscape:window-height="1002" inkscape:window-maximized="0" inkscape:window-width="944" inkscape:window-x="960" inkscape:window-y="0" inkscape:zoom="3.44715" pagecolor="#ffffff" showgrid="false"/>
<metadata id="metadata3686">
<rdf:RDF>
<cc:Work rdf:about="">
<dc:format>image/svg+xml</dc:format>
<dc:type rdf:resource="http://purl.org/dc/dcmitype/StillImage"/>
<dc:title/>
</cc:Work>
</rdf:RDF>
</metadata>
<g id="layer1" inkscape:groupmode="layer" inkscape:label="Layer 1" transform="translate(-290.81282,-622.9009)">
<path d="m 458.58993,672.50398 1.52699,-3.86759 -4.20066,-5.22177 0,-3.48118 -3.43659,-7.54255 1.14553,-9.47693 11.45531,6.76857 1.9096,-5.22177 -1.9096,-4.8342 2.48237,-2.51457 4.20066,4.83536 3.05399,-3.09477 3.4366,5.60818 6.49172,1.35418 1.33569,2.70719 11.64662,-3.86759 4.39082,2.12701 0.57277,3.86875 5.91896,8.50916 -4.77343,3.48118 0.1913,4.35147 -3.43659,0.8703 -2.29106,5.22177 -8.01872,5.51186 -7.44596,0.8703 -2.00468,6.67226 -3.53167,2.03069 -5.15489,-3.86759 -5.53636,-0.5802 -0.76407,-3.86875 -2.67252,-6.38216 -4.58213,-0.96661 z" i:knockout="Off" id="path539" inkscape:connector-curvature="0" style="fill:#b9b9b9;fill-opacity:1;stroke:#ffffff;stroke-width:1.15293837"/>
<path d="m 414.67713,690.68386 5.53635,-10.05713 2.86383,-8.89673 0,-4.8342 2.29106,-0.5802 0.57277,-10.05712 -1.9096,-1.93438 3.43659,-2.90098 1.9096,-7.92897 4.20067,4.83536 1.33683,0.38641 2.48237,-2.7072 4.39082,6.76858 10.88255,-0.77399 3.24529,7.93013 0,3.09361 4.20066,5.22177 -1.52699,4.25516 4.58213,0.96661 3.05513,6.76973 -2.67253,0.19263 -1.52699,5.22176 -2.09976,1.74059 -6.87319,-1.74059 -3.43659,2.32079 0.38146,8.12275 -5.53635,5.80197 -1.33684,7.54255 0.95423,4.44895 -0.57277,4.64157 -5.72765,0.38641 -0.95423,-2.51457 -3.4366,-1.74059 -5.15489,-3.28739 -6.10912,-0.38641 c 0,0 -4.39082,-0.19495 -4.39082,-1.54797 0,-1.35302 0.1913,-8.50916 0.1913,-8.50916 l -3.43659,-5.41555 0.18787,-4.8342 z" i:knockout="Off" id="path541" inkscape:connector-curvature="0" style="fill:#b9b9b9;fill-opacity:1;stroke:#ffffff;stroke-width:1.15293837"/>
<path d="m 400.54929,699.38681 -6.30043,5.41439 -0.1913,7.15614 -0.1913,3.67497 -6.49174,6.96236 -0.19015,-11.21752 -3.05514,-2.51457 2.86383,-9.08936 1.33684,-3.2874 6.68189,-1.35418 2.86383,-4.06137 4.20066,0.19378 3.6279,-3.67496 2.86383,-4.06138 -1.9096,-0.77398 -2.48237,-5.99459 -5.3462,0.5802 -4.19951,-8.31654 -9.16426,0 -4.58213,0.96661 -0.38146,-4.06138 4.58213,-0.19262 3.81805,-5.60934 0.95423,-8.50917 3.81806,-2.90098 -0.95423,-4.64157 1.14554,-3.48118 -1.14554,-2.51457 3.05514,-3.2874 8.01872,0 2.48236,-2.127 5.24998,1.40176 0.85914,-4.78662 4.58213,1.8369 5.3462,-4.254 3.81805,3.09361 2.48237,11.21752 1.52699,2.51457 -2.67252,7.73518 -3.05514,3.28855 1.527,1.54681 -0.57277,10.05712 -1.71829,0.19263 -0.57277,5.22177 -2.86383,8.89673 -5.53635,10.05713 -4.39083,4.8342 0.76407,2.51457 0.95423,3.09477 0.57277,5.80196 -1.7183,0.19263 -3.24529,-3.09361 -2.67253,-0.96777 -1.9096,-3.28739 -2.48236,-0.38641 z" i:knockout="Off" id="path551" inkscape:connector-curvature="0" style="fill:#b9b9b9;fill-opacity:1;stroke:#ffffff;stroke-width:1.15293837"/>
<path d="m 406.65841,682.75373 -2.48237,-5.99459 -5.3462,0.5802 -4.19951,-8.31654 -9.16426,0 -4.58213,0.96661 -3.6279,-0.77282 -2.67252,1.16039 3.05513,4.44779 -0.57276,-0.38642 -2.48237,5.60818 2.67252,6.57595 4.96359,2.7072 2.86383,1.16039 -0.95423,2.32079 -0.76407,2.51457 4.20067,3.86759 0.76407,-2.7072 6.68189,-1.35418 2.86383,-4.06137 4.20066,0.19378 5.15489,-5.41555 1.33684,-2.32079 -1.9096,-0.77398 z" i:knockout="Off" id="path557" inkscape:connector-curvature="0" style="fill:#b9b9b9;fill-opacity:1;stroke:#ffffff;stroke-width:1.15293837"/>
<path d="m 370.95677,668.4426 -3.4366,-1.35418 -13.36491,0 c 0,0 5.72765,-9.66955 5.72765,-10.24975 0,-0.58019 2.48237,-7.73634 2.48237,-7.73634 l -5.53635,-4.8342 -1.33684,-4.83535 1.33684,-2.90099 0.28638,-7.3975 2.57745,-4.49653 5.44127,0.14505 3.57979,-1.30544 3.19832,1.25671 5.96593,0.91903 3.77109,-1.30544 3.81805,10.73363 7.25466,2.9973 1.14553,2.51457 -1.14553,3.48118 0.95423,4.64157 -3.81806,2.90098 -1.14553,8.89674 -3.81921,4.83419 -4.39082,0.5802 0.1913,3.48118 -3.43659,-0.19262 -2.67252,1.16039 -3.6279,-1.93438 z" i:knockout="Off" id="path559" inkscape:connector-curvature="0" style="fill:#b9b9b9;fill-opacity:1;stroke:#ffffff;stroke-width:1.15293837"/>
<path d="m 427.66058,731.29761 2.67253,-3.48117 0.57276,-6.96236 6.87319,-1.93438 5.72766,-0.38641 0.57276,-4.64157 -0.95422,-4.44895 1.33683,-7.54255 5.53636,-5.80197 -0.38147,-8.12275 3.4366,-2.32079 6.87319,1.74059 2.09976,-1.74059 1.52699,-5.22176 2.67252,-0.19263 0.38147,3.09361 5.53635,0.96777 5.72766,4.254 -4.48705,3.96506 -1.7183,11.31383 -2.76875,2.51457 -2.95776,6.76858 2.29106,6.67226 -2.76875,2.4171 -1.24061,4.25516 -2.9589,2.70719 -2.29107,3.86875 0.38147,7.73518 -3.05399,4.83536 -5.3462,-0.38641 0,-4.64157 -6.87319,-6.38216 -4.00936,-0.38757 -5.34619,-2.51342 -1.14553,2.12701 -5.91782,-2.12701 z" i:knockout="Off" id="path561" inkscape:connector-curvature="0" style="fill:#b9b9b9;fill-opacity:1;stroke:#ffffff;stroke-width:1.15293837"/>
<path d="m 402.64905,770.12205 3.2934,-4.64158 2.43425,-5.65691 3.86617,-0.43515 0.57277,-3.62623 4.29574,-0.87029 4.00936,-5.94702 -0.85915,-3.77127 0.85915,-2.75594 6.58681,0 -1.00234,-3.62623 -1.43192,-2.17573 -0.42957,-3.77128 3.15021,-1.16039 5.58447,1.74059 1.14553,-2.12701 5.0117,2.7072 4.34385,0.19379 6.39551,6.33342 0.47768,4.69031 5.3462,0.38641 3.05513,-4.83536 0,-8.07401 1.9096,-3.52992 4.39082,5.12546 4.29575,7.83265 -2.00468,3.48118 1.14553,4.20643 3.86617,1.88564 -2.00468,5.94701 -5.58447,5.07672 -0.71596,4.49652 2.43426,4.20643 -7.15957,6.09206 -4.86851,-4.93167 -8.01872,-5.22177 -7.87553,-0.29009 -7.30391,10.00839 -5.15489,-2.61089 -6.01404,3.91633 -4.72532,-2.90098 -4.00936,-0.2901 -3.57979,-4.20643 -2.57744,4.49653 -3.57979,-1.30545 0.42958,-4.06137 z" i:knockout="Off" id="path563" inkscape:connector-curvature="0" style="fill:#b9b9b9;fill-opacity:1;stroke:#ffffff;stroke-width:1.15293837"/>
<path d="m 399.92841,748.65477 -4.29574,-0.72524 -2.14788,-6.38216 -5.58447,-1.74059 0,-3.19108 2.72064,-2.46584 -2.72064,-2.46583 -0.14319,-5.51187 1.86149,-1.88564 -1.7183,-2.32078 5.96594,-6.33343 0.0481,-10.63732 6.63492,-5.60818 2.48236,0.38641 1.9096,3.28739 2.29107,1.20913 3.6279,2.85225 1.3838,-0.53146 -0.23827,-5.46313 -1.7183,-5.60934 3.96125,-4.15769 0.23827,4.15769 3.43659,5.41555 -0.0951,8.99305 3.00702,1.01534 7.39785,0.43515 8.59148,5.02798 0.95423,2.51457 -6.49173,1.59554 -0.85915,6.96236 -2.86382,4.20643 -2.72064,1.16039 0.42957,3.77128 1.43192,2.17573 1.00234,3.62623 -6.58681,0 -0.85915,2.75594 -9.88021,0.58019 -3.57978,-1.01534 -1.7183,-1.88564 -3.15021,2.32079 -0.85915,3.33613 -1.14553,0.14504 z" i:knockout="Off" id="path565" inkscape:connector-curvature="0" style="fill:#b9b9b9;fill-opacity:1;stroke:#ffffff;stroke-width:1.15293837"/>
<path d="m 353.1048,745.60874 11.7417,-0.43514 0.42958,-4.93168 -0.28639,-3.04603 6.15724,-5.36682 2.86382,2.46584 3.29341,-1.01534 5.58446,6.52721 5.0117,0 5.58447,1.74059 2.57745,6.38216 5.0117,0.5802 0.85915,-3.33613 3.15021,-2.32079 1.7183,1.88564 3.57978,1.01534 9.88021,-0.58019 0.85915,3.77127 -4.43893,6.09207 -3.86617,0.72524 -0.57277,3.62623 -3.86617,0.43515 -2.14787,5.22177 -3.57978,5.07672 -10.0234,8.12275 -9.30745,-2.90098 -1.28873,-3.62623 2.72064,-0.72525 -0.85915,-7.3975 -3.43659,-0.72525 -1.14553,-2.75593 3.43659,-1.45049 0,-3.33613 -1.7183,-1.4505 -1.00234,-4.78662 -4.8685,0.5802 -2.00468,4.93167 -2.00468,1.59554 -0.28639,3.33613 -4.72531,0.87029 -4.29575,-4.49652 -1.00234,-3.91632 -4.00936,-2.46584 -4.00936,-2.03069 0.28638,-1.88564 z" i:knockout="Off" id="path567" inkscape:connector-curvature="0" style="fill:#b9b9b9;fill-opacity:1;stroke:#ffffff;stroke-width:1.15293837"/>
<path d="m 357.68693,695.13164 -0.85915,1.59555 0.42958,1.01534 -3.00702,2.46583 -6.87319,1.88564 3.2934,3.19108 -1.28872,2.75594 -9.02106,0.43515 -5.72766,4.06137 -1.7183,7.25246 1.43192,8.99304 2.29106,0.43515 2.86383,-1.01534 0,4.49652 0.28638,3.77128 1.86149,0.87029 -1.28872,3.91633 1.14553,6.23711 5.72766,-0.14505 1.71829,-3.62623 4.15255,1.88564 11.7417,-0.43514 0.42958,-4.93168 -0.42958,-2.61088 6.30043,-5.80197 2.86382,2.46584 3.29341,-1.01534 5.58446,6.52721 5.0117,0 0,-3.19108 2.72064,-2.46584 -2.72064,-2.46583 -0.14319,-5.51187 1.86149,-1.88564 -2.14787,-2.90098 -0.28638,-10.00839 -2.86383,-2.90098 -2.14787,2.61088 -4.86851,-0.5802 -3.57979,-3.62623 -0.85915,-3.19108 -3.43659,-2.75593 -4.15255,0.87029 -2.72064,-4.35147 -4.86851,-2.32079 z" i:knockout="Off" id="path569" inkscape:connector-curvature="0" style="fill:#b9b9b9;fill-opacity:1;stroke:#ffffff;stroke-width:1.15293837"/>
<path d="m 341.5063,686.57375 -11.45532,-6.67226 4.29575,-4.78663 3.43659,-0.87029 4.86851,1.30544 2.57745,-4.93167 6.72999,-3.48118 2.86383,0 12.69593,-0.0487 3.43659,1.35418 3.6279,1.93438 2.48237,4.06137 -2.48237,5.60818 2.67252,6.57595 8.21003,3.72254 -1.86149,4.49652 3.43659,4.20643 -2.72063,8.848 -2.14787,3.19108 -4.86851,-0.5802 -3.57979,-3.62623 -0.85915,-3.19108 -3.86617,-2.61088 -3.72297,0.72524 -2.72064,-4.35147 -4.86851,-2.32079 -0.85915,1.59554 0.42958,1.01535 -3.00702,2.46583 -6.87319,1.88564 -5.29809,-7.54255 -1.5751,-5.36682 1.71829,-1.1604 -0.71595,-1.45049 z" i:knockout="Off" id="path571" inkscape:connector-curvature="0" style="fill:#b9b9b9;stroke:#ffffff;stroke-width:1.15293837"/>
<path d="m 326.61439,729.50829 -5.44128,-6.38216 -11.45531,1.01534 -5.72766,2.90098 -8.73468,-7.25245 0.28639,-4.93167 12.02808,-7.54256 4.00936,-0.58019 7.73233,-8.70295 0.85915,-11.02374 12.02808,1.1604 7.87553,3.04603 2.00468,2.75593 5.29809,8.12275 3.72297,3.48118 -1.71829,2.46584 -9.02106,0.43515 -5.58447,3.62622 -1.43191,7.10741 1.00234,9.57324 -7.73234,0.72525 z" i:knockout="Off" id="path573" inkscape:connector-curvature="0" style="fill:#b9b9b9;fill-opacity:1;stroke:#ffffff;stroke-width:1.15293837"/>
<path d="m 291.38929,753.29635 8.4483,-15.23016 8.59149,-3.77128 7.15957,-0.14505 4.72532,-4.06137 6.01404,1.45049 0.28638,-2.03069 7.73234,-0.72525 1.71829,0.5802 3.4366,-1.16039 0.71595,7.9777 1.43192,1.16039 -1.00234,3.48118 0.85915,6.09207 -4.43894,4.78662 1.57511,2.90098 -1.14553,4.78662 c 0,0 -2.57745,1.30544 -2.72064,1.88564 -0.14319,0.5802 -0.14319,4.93167 -0.14319,4.93167 l -8.87787,3.04603 -4.15255,4.49653 -5.0117,-1.59554 -3.29341,0.43514 0.1432,4.64157 c 0,0 -8.4483,-1.59554 -8.59149,-2.03068 -0.14319,-0.43515 -0.57277,-6.81731 -0.57277,-6.81731 l -2.72063,-0.2901 -2.72064,-5.94702 1.14553,-7.6876 -8.59149,-1.16039 z" i:knockout="Off" id="path575" inkscape:connector-curvature="0" style="fill:#b9b9b9;fill-opacity:1;stroke:#ffffff;stroke-width:1.15293837"/>
<path d="m 341.36311,670.37698 5.72765,-3.67497 7.0645,0.38641 5.72765,-10.24975 2.48237,-7.73634 -5.53635,-4.8342 -1.33684,-4.83535 -6.96827,5.36681 -7.58914,0.2901 -4.15255,4.64157 -4.00936,0.53146 -3.6279,-0.38641 -1.33684,2.7072 -15.27337,1.93438 -1.9096,2.127 -2.09976,-1.1604 0.57277,3.28856 6.10912,2.32078 3.24529,1.93322 0,7.93013 8.01872,0.58019 2.67252,-0.96777 4.00936,0.38758 1.33684,1.35301 2.29106,-0.77282 4.58213,-1.16039 z" i:knockout="Off" id="path587" inkscape:connector-curvature="0" style="fill:#b9b9b9;fill-opacity:1;stroke:#ffffff;stroke-width:1.15293837"/>














</g>
</svg>