<svg width="86" height="86" viewBox="0 0 86 86" fill="none" xmlns="http://www.w3.org/2000/svg">
<path d="M43 32.3396C48.1361 32.3396 53.4365 31.5632 58.901 30.0104C64.3656 28.4576 67.4264 26.8451 68.0833 25.1729C67.4264 23.441 64.4253 21.7986 59.0802 20.2458C53.7351 18.6931 48.375 17.9167 43 17.9167C37.5653 17.9167 32.2351 18.6781 27.0094 20.201C21.7837 21.724 18.7528 23.3812 17.9167 25.1729C18.8125 26.9049 21.933 28.5323 27.2781 30.0552C32.6233 31.5781 37.8639 32.3396 43 32.3396ZM37.5354 67.8146C38.1326 69.1882 38.8194 70.5021 39.5958 71.7562C40.3722 73.0104 41.2681 74.175 42.2833 75.25C37.9236 75.1903 33.8177 74.7871 29.9656 74.0406C26.1135 73.2941 22.7691 72.2788 19.9323 70.9948C17.0955 69.7108 14.8559 68.2028 13.2135 66.4708C11.5712 64.7389 10.75 62.8875 10.75 60.9167V25.0833C10.75 23.1125 11.601 21.2611 13.3031 19.5292C15.0052 17.7972 17.3194 16.2743 20.2458 14.9604C23.1722 13.6465 26.5913 12.6163 30.5031 11.8698C34.4149 11.1233 38.5806 10.75 43 10.75C47.4194 10.75 51.5851 11.1233 55.4969 11.8698C59.4087 12.6163 62.8278 13.6465 65.7542 14.9604C68.6806 16.2743 70.9948 17.7972 72.6969 19.5292C74.399 21.2611 75.25 23.1125 75.25 25.0833C75.25 27.0542 74.399 28.9056 72.6969 30.6375C70.9948 32.3694 68.6806 33.8924 65.7542 35.2062C62.8278 36.5201 59.4087 37.5503 55.4969 38.2969C51.5851 39.0434 47.4194 39.4167 43 39.4167C37.9236 39.4167 33.2354 38.9687 28.9354 38.0729C24.6354 37.1771 20.9625 35.8632 17.9167 34.1312V43.1792C20.3056 45.3889 23.2917 47.0014 26.875 48.0167C30.4583 49.0319 34.0715 49.6889 37.7146 49.9875C37.2368 50.8833 36.8486 51.9135 36.55 53.0781C36.2514 54.2427 36.0424 55.5417 35.9229 56.975C32.3396 56.5569 29.0101 55.9597 25.9344 55.1833C22.8587 54.4069 20.1861 53.3618 17.9167 52.0479V60.9167C18.7528 62.4097 21.0521 63.8132 24.8146 65.1271C28.5771 66.441 32.8174 67.3368 37.5354 67.8146ZM77.4 82.4167L67.725 72.7417C66.4111 73.5181 65.0375 74.1302 63.6042 74.5781C62.1708 75.026 60.6778 75.25 59.125 75.25C54.6458 75.25 50.8385 73.6823 47.7031 70.5469C44.5677 67.4115 43 63.6042 43 59.125C43 54.6458 44.5677 50.8385 47.7031 47.7031C50.8385 44.5677 54.6458 43 59.125 43C63.6042 43 67.4115 44.5677 70.5469 47.7031C73.6823 50.8385 75.25 54.6458 75.25 59.125C75.25 60.6778 75.026 62.1708 74.5781 63.6042C74.1302 65.0375 73.5181 66.4111 72.7417 67.725L82.4167 77.4L77.4 82.4167ZM59.125 68.0833C61.6333 68.0833 63.7535 67.2174 65.4854 65.4854C67.2174 63.7535 68.0833 61.6333 68.0833 59.125C68.0833 56.6167 67.2174 54.4965 65.4854 52.7646C63.7535 51.0326 61.6333 50.1667 59.125 50.1667C56.6167 50.1667 54.4965 51.0326 52.7646 52.7646C51.0326 54.4965 50.1667 56.6167 50.1667 59.125C50.1667 61.6333 51.0326 63.7535 52.7646 65.4854C54.4965 67.2174 56.6167 68.0833 59.125 68.0833Z" fill="#F39C12"/>
</svg>
