<svg width="88" height="82" viewBox="0 0 88 82" fill="none" xmlns="http://www.w3.org/2000/svg">
<mask id="path-1-outside-1_1067_1719" maskUnits="userSpaceOnUse" x="0" y="0" width="88" height="82" fill="black">
<rect fill="white" width="88" height="82"/>
<path d="M44.083 30.6555C44.3967 30.6555 44.6599 30.7621 44.8721 30.9753C45.0843 31.1884 45.1903 31.4525 45.1903 31.7675V57.0116L47.0175 55.1768C47.2205 54.9729 47.4788 54.8708 47.7926 54.8708C48.1063 54.8708 48.3646 54.9729 48.5676 55.1768C48.7706 55.3807 48.872 55.6401 48.872 55.9552C48.872 56.2703 48.7706 56.5297 48.5676 56.7336L44.8581 60.4592C44.6366 60.6815 44.3782 60.7928 44.083 60.7928C43.7878 60.7928 43.5294 60.6816 43.3079 60.4592L39.5984 56.7336C39.3954 56.5297 39.294 56.2703 39.294 55.9552C39.294 55.6402 39.3954 55.3807 39.5984 55.1768C39.8014 54.9729 40.06 54.8708 40.3737 54.8708C40.6874 54.8708 40.9458 54.9729 41.1488 55.1768L42.9757 57.0116V31.7675C42.9757 31.4525 43.0819 31.1884 43.2942 30.9753C43.5064 30.7622 43.7693 30.6555 44.083 30.6555Z"/>
<path d="M12.442 32.6016C12.7557 32.6016 13.0186 32.7083 13.2308 32.9214C13.4431 33.1346 13.5493 33.3986 13.5493 33.7137V39.2741H25.7296C26.3386 39.2741 26.8601 39.4917 27.2937 39.9273C27.7274 40.3629 27.9442 40.8866 27.9442 41.4982V48.3653L28.9131 47.3923C29.1161 47.1884 29.3698 47.0863 29.6743 47.0863C29.9788 47.0863 30.2417 47.1884 30.4632 47.3923C30.6846 47.6147 30.7954 47.8787 30.7954 48.1845C30.7954 48.4903 30.6846 48.7546 30.4632 48.977L27.6119 51.8406C27.3905 52.063 27.1321 52.1743 26.8369 52.1743C26.5416 52.1743 26.2833 52.063 26.0618 51.8406L23.1827 48.9491C22.9798 48.7452 22.8738 48.4903 22.8645 48.1845C22.8553 47.8787 22.9613 47.6147 23.1827 47.3923C23.3857 47.1884 23.6441 47.0863 23.9578 47.0863C24.2715 47.0863 24.5301 47.1884 24.7331 47.3923L25.7296 48.3653V41.4982H13.5493C12.9403 41.4982 12.4188 41.2805 11.9851 40.845C11.5514 40.4094 11.3347 39.8857 11.3347 39.2741V33.7137C11.3347 33.3986 11.4409 33.1346 11.6532 32.9214C11.8654 32.7083 12.1283 32.6016 12.442 32.6016Z"/>
<path d="M75.558 32.6016C75.8717 32.6016 76.1346 32.7083 76.3468 32.9214C76.5591 33.1346 76.6653 33.3986 76.6653 33.7137V39.2741C76.6653 39.8857 76.4486 40.4094 76.0149 40.845C75.5812 41.2805 75.0597 41.4982 74.4507 41.4982H63.1009V48.393L64.0698 47.3923C64.2728 47.1699 64.5265 47.0632 64.8311 47.0724C65.1355 47.0817 65.3984 47.1884 65.6199 47.3923C65.8413 47.6147 65.9521 47.8787 65.9521 48.1845C65.9521 48.4903 65.8414 48.7546 65.6199 48.977L62.7687 51.8406C62.5472 52.063 62.2889 52.1743 61.9936 52.1743C61.6983 52.1743 61.44 52.063 61.2185 51.8406L58.3395 48.9491C58.1365 48.7452 58.0305 48.4903 58.0213 48.1845C58.0121 47.8787 58.1181 47.6147 58.3395 47.3923C58.5424 47.1884 58.8008 47.0863 59.1145 47.0863C59.4283 47.0863 59.6868 47.1884 59.8898 47.3923L60.8863 48.3653V41.4982C60.8863 40.8866 61.103 40.3629 61.5367 39.9273C61.9704 39.4917 62.4919 39.2741 63.1009 39.2741H74.4507V33.7137C74.4507 33.3986 74.5569 33.1346 74.7692 32.9214C74.9814 32.7083 75.2443 32.6016 75.558 32.6016Z"/>
<path d="M18.1631 23.983H6.72086V21.1102H18.1631V23.983Z"/>
<path d="M18.1631 18.2372H6.72086V15.3644H18.1631V18.2372Z"/>
<path fill-rule="evenodd" clip-rule="evenodd" d="M23.884 9.61859V26.8558C23.884 27.6458 23.6039 28.3221 23.0438 28.8847C22.4836 29.4473 21.8102 29.7288 21.0236 29.7288H3.86043C3.07379 29.7288 2.40039 29.4473 1.84021 28.8847C1.28005 28.3221 1 27.6458 1 26.8558V3.87305C1 3.08303 1.28005 2.4067 1.84021 1.8441C2.40039 1.2815 3.07379 1 3.86043 1H15.3024L23.884 9.61859ZM3.86043 26.8558H21.0236V11.0551H13.8723V3.87305H3.86043V26.8558Z"/>
<path d="M49.7211 23.983H38.2789V21.1102H49.7211V23.983Z"/>
<path d="M49.7211 18.2372H38.2789V15.3644H49.7211V18.2372Z"/>
<path fill-rule="evenodd" clip-rule="evenodd" d="M55.442 9.61859V26.8558C55.442 27.6458 55.1619 28.3221 54.6018 28.8847C54.0416 29.4473 53.3682 29.7288 52.5816 29.7288H35.4184C34.6318 29.7288 33.9584 29.4473 33.3982 28.8847C32.8381 28.3221 32.558 27.6458 32.558 26.8558V3.87305C32.558 3.08303 32.8381 2.4067 33.3982 1.8441C33.9584 1.2815 34.6318 1 35.4184 1H46.8604L55.442 9.61859ZM35.4184 26.8558H52.5816V11.0551H45.4304V3.87305H35.4184V26.8558Z"/>
<path d="M81.2791 23.983H69.8369V21.1102H81.2791V23.983Z"/>
<path d="M81.2791 18.2372H69.8369V15.3644H81.2791V18.2372Z"/>
<path fill-rule="evenodd" clip-rule="evenodd" d="M87 9.61859V26.8558C87 27.6458 86.72 28.3221 86.1598 28.8847C85.5996 29.4473 84.9262 29.7288 84.1396 29.7288H66.9764C66.1898 29.7288 65.5164 29.4473 64.9562 28.8847C64.3961 28.3221 64.116 27.6458 64.116 26.8558V3.87305C64.116 3.08303 64.3961 2.4067 64.9562 1.8441C65.5164 1.2815 66.1898 1 66.9764 1H78.4184L87 9.61859ZM66.9764 26.8558H84.1396V11.0551H76.9884V3.87305H66.9764V26.8558Z"/>
<path d="M72.7552 72.341C73.3078 72.341 73.7775 72.5353 74.1644 72.9239C74.5513 73.3124 74.7448 73.7841 74.7448 74.3392C74.7448 74.8943 74.5513 75.366 74.1644 75.7546C73.7775 76.1431 73.3078 76.3375 72.7552 76.3375C72.2025 76.3375 71.7328 76.1431 71.3459 75.7546C70.959 75.366 70.7655 74.8943 70.7655 74.3392C70.7655 73.7841 70.959 73.3124 71.3459 72.9239C71.7328 72.5353 72.2025 72.341 72.7552 72.341Z"/>
<path fill-rule="evenodd" clip-rule="evenodd" d="M79.3873 78.3357C79.3873 79.0684 79.1277 79.6958 78.6082 80.2175C78.0887 80.7393 77.4641 81 76.7345 81H11.2193C10.4898 81 9.86532 80.7392 9.34583 80.2175C8.8263 79.6958 8.56645 79.0684 8.56645 78.3357V67.9565L14.4936 62.5595C14.7367 62.3153 15.0187 62.1267 15.3392 61.9934C15.6598 61.8602 15.9971 61.7936 16.3508 61.7936H71.6033C71.9569 61.7936 72.2941 61.8602 72.6146 61.9934C72.9351 62.1266 73.217 62.3153 73.4602 62.5595L79.3873 67.9565V78.3357ZM75.6402 67.9565L71.6033 64.4579H16.3508L12.3136 67.9565H75.6402ZM11.2193 78.3357H76.7345V70.6207H11.2193V78.3357Z"/>
</mask>
<path d="M44.083 30.6555C44.3967 30.6555 44.6599 30.7621 44.8721 30.9753C45.0843 31.1884 45.1903 31.4525 45.1903 31.7675V57.0116L47.0175 55.1768C47.2205 54.9729 47.4788 54.8708 47.7926 54.8708C48.1063 54.8708 48.3646 54.9729 48.5676 55.1768C48.7706 55.3807 48.872 55.6401 48.872 55.9552C48.872 56.2703 48.7706 56.5297 48.5676 56.7336L44.8581 60.4592C44.6366 60.6815 44.3782 60.7928 44.083 60.7928C43.7878 60.7928 43.5294 60.6816 43.3079 60.4592L39.5984 56.7336C39.3954 56.5297 39.294 56.2703 39.294 55.9552C39.294 55.6402 39.3954 55.3807 39.5984 55.1768C39.8014 54.9729 40.06 54.8708 40.3737 54.8708C40.6874 54.8708 40.9458 54.9729 41.1488 55.1768L42.9757 57.0116V31.7675C42.9757 31.4525 43.0819 31.1884 43.2942 30.9753C43.5064 30.7622 43.7693 30.6555 44.083 30.6555Z" fill="#F39C12"/>
<path d="M12.442 32.6016C12.7557 32.6016 13.0186 32.7083 13.2308 32.9214C13.4431 33.1346 13.5493 33.3986 13.5493 33.7137V39.2741H25.7296C26.3386 39.2741 26.8601 39.4917 27.2937 39.9273C27.7274 40.3629 27.9442 40.8866 27.9442 41.4982V48.3653L28.9131 47.3923C29.1161 47.1884 29.3698 47.0863 29.6743 47.0863C29.9788 47.0863 30.2417 47.1884 30.4632 47.3923C30.6846 47.6147 30.7954 47.8787 30.7954 48.1845C30.7954 48.4903 30.6846 48.7546 30.4632 48.977L27.6119 51.8406C27.3905 52.063 27.1321 52.1743 26.8369 52.1743C26.5416 52.1743 26.2833 52.063 26.0618 51.8406L23.1827 48.9491C22.9798 48.7452 22.8738 48.4903 22.8645 48.1845C22.8553 47.8787 22.9613 47.6147 23.1827 47.3923C23.3857 47.1884 23.6441 47.0863 23.9578 47.0863C24.2715 47.0863 24.5301 47.1884 24.7331 47.3923L25.7296 48.3653V41.4982H13.5493C12.9403 41.4982 12.4188 41.2805 11.9851 40.845C11.5514 40.4094 11.3347 39.8857 11.3347 39.2741V33.7137C11.3347 33.3986 11.4409 33.1346 11.6532 32.9214C11.8654 32.7083 12.1283 32.6016 12.442 32.6016Z" fill="#F39C12"/>
<path d="M75.558 32.6016C75.8717 32.6016 76.1346 32.7083 76.3468 32.9214C76.5591 33.1346 76.6653 33.3986 76.6653 33.7137V39.2741C76.6653 39.8857 76.4486 40.4094 76.0149 40.845C75.5812 41.2805 75.0597 41.4982 74.4507 41.4982H63.1009V48.393L64.0698 47.3923C64.2728 47.1699 64.5265 47.0632 64.8311 47.0724C65.1355 47.0817 65.3984 47.1884 65.6199 47.3923C65.8413 47.6147 65.9521 47.8787 65.9521 48.1845C65.9521 48.4903 65.8414 48.7546 65.6199 48.977L62.7687 51.8406C62.5472 52.063 62.2889 52.1743 61.9936 52.1743C61.6983 52.1743 61.44 52.063 61.2185 51.8406L58.3395 48.9491C58.1365 48.7452 58.0305 48.4903 58.0213 48.1845C58.0121 47.8787 58.1181 47.6147 58.3395 47.3923C58.5424 47.1884 58.8008 47.0863 59.1145 47.0863C59.4283 47.0863 59.6868 47.1884 59.8898 47.3923L60.8863 48.3653V41.4982C60.8863 40.8866 61.103 40.3629 61.5367 39.9273C61.9704 39.4917 62.4919 39.2741 63.1009 39.2741H74.4507V33.7137C74.4507 33.3986 74.5569 33.1346 74.7692 32.9214C74.9814 32.7083 75.2443 32.6016 75.558 32.6016Z" fill="#F39C12"/>
<path d="M18.1631 23.983H6.72086V21.1102H18.1631V23.983Z" fill="#F39C12"/>
<path d="M18.1631 18.2372H6.72086V15.3644H18.1631V18.2372Z" fill="#F39C12"/>
<path fill-rule="evenodd" clip-rule="evenodd" d="M23.884 9.61859V26.8558C23.884 27.6458 23.6039 28.3221 23.0438 28.8847C22.4836 29.4473 21.8102 29.7288 21.0236 29.7288H3.86043C3.07379 29.7288 2.40039 29.4473 1.84021 28.8847C1.28005 28.3221 1 27.6458 1 26.8558V3.87305C1 3.08303 1.28005 2.4067 1.84021 1.8441C2.40039 1.2815 3.07379 1 3.86043 1H15.3024L23.884 9.61859ZM3.86043 26.8558H21.0236V11.0551H13.8723V3.87305H3.86043V26.8558Z" fill="#F39C12"/>
<path d="M49.7211 23.983H38.2789V21.1102H49.7211V23.983Z" fill="#F39C12"/>
<path d="M49.7211 18.2372H38.2789V15.3644H49.7211V18.2372Z" fill="#F39C12"/>
<path fill-rule="evenodd" clip-rule="evenodd" d="M55.442 9.61859V26.8558C55.442 27.6458 55.1619 28.3221 54.6018 28.8847C54.0416 29.4473 53.3682 29.7288 52.5816 29.7288H35.4184C34.6318 29.7288 33.9584 29.4473 33.3982 28.8847C32.8381 28.3221 32.558 27.6458 32.558 26.8558V3.87305C32.558 3.08303 32.8381 2.4067 33.3982 1.8441C33.9584 1.2815 34.6318 1 35.4184 1H46.8604L55.442 9.61859ZM35.4184 26.8558H52.5816V11.0551H45.4304V3.87305H35.4184V26.8558Z" fill="#F39C12"/>
<path d="M81.2791 23.983H69.8369V21.1102H81.2791V23.983Z" fill="#F39C12"/>
<path d="M81.2791 18.2372H69.8369V15.3644H81.2791V18.2372Z" fill="#F39C12"/>
<path fill-rule="evenodd" clip-rule="evenodd" d="M87 9.61859V26.8558C87 27.6458 86.72 28.3221 86.1598 28.8847C85.5996 29.4473 84.9262 29.7288 84.1396 29.7288H66.9764C66.1898 29.7288 65.5164 29.4473 64.9562 28.8847C64.3961 28.3221 64.116 27.6458 64.116 26.8558V3.87305C64.116 3.08303 64.3961 2.4067 64.9562 1.8441C65.5164 1.2815 66.1898 1 66.9764 1H78.4184L87 9.61859ZM66.9764 26.8558H84.1396V11.0551H76.9884V3.87305H66.9764V26.8558Z" fill="#F39C12"/>
<path d="M72.7552 72.341C73.3078 72.341 73.7775 72.5353 74.1644 72.9239C74.5513 73.3124 74.7448 73.7841 74.7448 74.3392C74.7448 74.8943 74.5513 75.366 74.1644 75.7546C73.7775 76.1431 73.3078 76.3375 72.7552 76.3375C72.2025 76.3375 71.7328 76.1431 71.3459 75.7546C70.959 75.366 70.7655 74.8943 70.7655 74.3392C70.7655 73.7841 70.959 73.3124 71.3459 72.9239C71.7328 72.5353 72.2025 72.341 72.7552 72.341Z" fill="#F39C12"/>
<path fill-rule="evenodd" clip-rule="evenodd" d="M79.3873 78.3357C79.3873 79.0684 79.1277 79.6958 78.6082 80.2175C78.0887 80.7393 77.4641 81 76.7345 81H11.2193C10.4898 81 9.86532 80.7392 9.34583 80.2175C8.8263 79.6958 8.56645 79.0684 8.56645 78.3357V67.9565L14.4936 62.5595C14.7367 62.3153 15.0187 62.1267 15.3392 61.9934C15.6598 61.8602 15.9971 61.7936 16.3508 61.7936H71.6033C71.9569 61.7936 72.2941 61.8602 72.6146 61.9934C72.9351 62.1266 73.217 62.3153 73.4602 62.5595L79.3873 67.9565V78.3357ZM75.6402 67.9565L71.6033 64.4579H16.3508L12.3136 67.9565H75.6402ZM11.2193 78.3357H76.7345V70.6207H11.2193V78.3357Z" fill="#F39C12"/>
<path d="M44.083 30.6555C44.3967 30.6555 44.6599 30.7621 44.8721 30.9753C45.0843 31.1884 45.1903 31.4525 45.1903 31.7675V57.0116L47.0175 55.1768C47.2205 54.9729 47.4788 54.8708 47.7926 54.8708C48.1063 54.8708 48.3646 54.9729 48.5676 55.1768C48.7706 55.3807 48.872 55.6401 48.872 55.9552C48.872 56.2703 48.7706 56.5297 48.5676 56.7336L44.8581 60.4592C44.6366 60.6815 44.3782 60.7928 44.083 60.7928C43.7878 60.7928 43.5294 60.6816 43.3079 60.4592L39.5984 56.7336C39.3954 56.5297 39.294 56.2703 39.294 55.9552C39.294 55.6402 39.3954 55.3807 39.5984 55.1768C39.8014 54.9729 40.06 54.8708 40.3737 54.8708C40.6874 54.8708 40.9458 54.9729 41.1488 55.1768L42.9757 57.0116V31.7675C42.9757 31.4525 43.0819 31.1884 43.2942 30.9753C43.5064 30.7622 43.7693 30.6555 44.083 30.6555Z" stroke="#F39C12" stroke-width="0.5" mask="url(#path-1-outside-1_1067_1719)"/>
<path d="M12.442 32.6016C12.7557 32.6016 13.0186 32.7083 13.2308 32.9214C13.4431 33.1346 13.5493 33.3986 13.5493 33.7137V39.2741H25.7296C26.3386 39.2741 26.8601 39.4917 27.2937 39.9273C27.7274 40.3629 27.9442 40.8866 27.9442 41.4982V48.3653L28.9131 47.3923C29.1161 47.1884 29.3698 47.0863 29.6743 47.0863C29.9788 47.0863 30.2417 47.1884 30.4632 47.3923C30.6846 47.6147 30.7954 47.8787 30.7954 48.1845C30.7954 48.4903 30.6846 48.7546 30.4632 48.977L27.6119 51.8406C27.3905 52.063 27.1321 52.1743 26.8369 52.1743C26.5416 52.1743 26.2833 52.063 26.0618 51.8406L23.1827 48.9491C22.9798 48.7452 22.8738 48.4903 22.8645 48.1845C22.8553 47.8787 22.9613 47.6147 23.1827 47.3923C23.3857 47.1884 23.6441 47.0863 23.9578 47.0863C24.2715 47.0863 24.5301 47.1884 24.7331 47.3923L25.7296 48.3653V41.4982H13.5493C12.9403 41.4982 12.4188 41.2805 11.9851 40.845C11.5514 40.4094 11.3347 39.8857 11.3347 39.2741V33.7137C11.3347 33.3986 11.4409 33.1346 11.6532 32.9214C11.8654 32.7083 12.1283 32.6016 12.442 32.6016Z" stroke="#F39C12" stroke-width="0.5" mask="url(#path-1-outside-1_1067_1719)"/>
<path d="M75.558 32.6016C75.8717 32.6016 76.1346 32.7083 76.3468 32.9214C76.5591 33.1346 76.6653 33.3986 76.6653 33.7137V39.2741C76.6653 39.8857 76.4486 40.4094 76.0149 40.845C75.5812 41.2805 75.0597 41.4982 74.4507 41.4982H63.1009V48.393L64.0698 47.3923C64.2728 47.1699 64.5265 47.0632 64.8311 47.0724C65.1355 47.0817 65.3984 47.1884 65.6199 47.3923C65.8413 47.6147 65.9521 47.8787 65.9521 48.1845C65.9521 48.4903 65.8414 48.7546 65.6199 48.977L62.7687 51.8406C62.5472 52.063 62.2889 52.1743 61.9936 52.1743C61.6983 52.1743 61.44 52.063 61.2185 51.8406L58.3395 48.9491C58.1365 48.7452 58.0305 48.4903 58.0213 48.1845C58.0121 47.8787 58.1181 47.6147 58.3395 47.3923C58.5424 47.1884 58.8008 47.0863 59.1145 47.0863C59.4283 47.0863 59.6868 47.1884 59.8898 47.3923L60.8863 48.3653V41.4982C60.8863 40.8866 61.103 40.3629 61.5367 39.9273C61.9704 39.4917 62.4919 39.2741 63.1009 39.2741H74.4507V33.7137C74.4507 33.3986 74.5569 33.1346 74.7692 32.9214C74.9814 32.7083 75.2443 32.6016 75.558 32.6016Z" stroke="#F39C12" stroke-width="0.5" mask="url(#path-1-outside-1_1067_1719)"/>
<path d="M18.1631 23.983H6.72086V21.1102H18.1631V23.983Z" stroke="#F39C12" stroke-width="0.5" mask="url(#path-1-outside-1_1067_1719)"/>
<path d="M18.1631 18.2372H6.72086V15.3644H18.1631V18.2372Z" stroke="#F39C12" stroke-width="0.5" mask="url(#path-1-outside-1_1067_1719)"/>
<path fill-rule="evenodd" clip-rule="evenodd" d="M23.884 9.61859V26.8558C23.884 27.6458 23.6039 28.3221 23.0438 28.8847C22.4836 29.4473 21.8102 29.7288 21.0236 29.7288H3.86043C3.07379 29.7288 2.40039 29.4473 1.84021 28.8847C1.28005 28.3221 1 27.6458 1 26.8558V3.87305C1 3.08303 1.28005 2.4067 1.84021 1.8441C2.40039 1.2815 3.07379 1 3.86043 1H15.3024L23.884 9.61859ZM3.86043 26.8558H21.0236V11.0551H13.8723V3.87305H3.86043V26.8558Z" stroke="#F39C12" stroke-width="0.5" mask="url(#path-1-outside-1_1067_1719)"/>
<path d="M49.7211 23.983H38.2789V21.1102H49.7211V23.983Z" stroke="#F39C12" stroke-width="0.5" mask="url(#path-1-outside-1_1067_1719)"/>
<path d="M49.7211 18.2372H38.2789V15.3644H49.7211V18.2372Z" stroke="#F39C12" stroke-width="0.5" mask="url(#path-1-outside-1_1067_1719)"/>
<path fill-rule="evenodd" clip-rule="evenodd" d="M55.442 9.61859V26.8558C55.442 27.6458 55.1619 28.3221 54.6018 28.8847C54.0416 29.4473 53.3682 29.7288 52.5816 29.7288H35.4184C34.6318 29.7288 33.9584 29.4473 33.3982 28.8847C32.8381 28.3221 32.558 27.6458 32.558 26.8558V3.87305C32.558 3.08303 32.8381 2.4067 33.3982 1.8441C33.9584 1.2815 34.6318 1 35.4184 1H46.8604L55.442 9.61859ZM35.4184 26.8558H52.5816V11.0551H45.4304V3.87305H35.4184V26.8558Z" stroke="#F39C12" stroke-width="0.5" mask="url(#path-1-outside-1_1067_1719)"/>
<path d="M81.2791 23.983H69.8369V21.1102H81.2791V23.983Z" stroke="#F39C12" stroke-width="0.5" mask="url(#path-1-outside-1_1067_1719)"/>
<path d="M81.2791 18.2372H69.8369V15.3644H81.2791V18.2372Z" stroke="#F39C12" stroke-width="0.5" mask="url(#path-1-outside-1_1067_1719)"/>
<path fill-rule="evenodd" clip-rule="evenodd" d="M87 9.61859V26.8558C87 27.6458 86.72 28.3221 86.1598 28.8847C85.5996 29.4473 84.9262 29.7288 84.1396 29.7288H66.9764C66.1898 29.7288 65.5164 29.4473 64.9562 28.8847C64.3961 28.3221 64.116 27.6458 64.116 26.8558V3.87305C64.116 3.08303 64.3961 2.4067 64.9562 1.8441C65.5164 1.2815 66.1898 1 66.9764 1H78.4184L87 9.61859ZM66.9764 26.8558H84.1396V11.0551H76.9884V3.87305H66.9764V26.8558Z" stroke="#F39C12" stroke-width="0.5" mask="url(#path-1-outside-1_1067_1719)"/>
<path d="M72.7552 72.341C73.3078 72.341 73.7775 72.5353 74.1644 72.9239C74.5513 73.3124 74.7448 73.7841 74.7448 74.3392C74.7448 74.8943 74.5513 75.366 74.1644 75.7546C73.7775 76.1431 73.3078 76.3375 72.7552 76.3375C72.2025 76.3375 71.7328 76.1431 71.3459 75.7546C70.959 75.366 70.7655 74.8943 70.7655 74.3392C70.7655 73.7841 70.959 73.3124 71.3459 72.9239C71.7328 72.5353 72.2025 72.341 72.7552 72.341Z" stroke="#F39C12" stroke-width="0.5" mask="url(#path-1-outside-1_1067_1719)"/>
<path fill-rule="evenodd" clip-rule="evenodd" d="M79.3873 78.3357C79.3873 79.0684 79.1277 79.6958 78.6082 80.2175C78.0887 80.7393 77.4641 81 76.7345 81H11.2193C10.4898 81 9.86532 80.7392 9.34583 80.2175C8.8263 79.6958 8.56645 79.0684 8.56645 78.3357V67.9565L14.4936 62.5595C14.7367 62.3153 15.0187 62.1267 15.3392 61.9934C15.6598 61.8602 15.9971 61.7936 16.3508 61.7936H71.6033C71.9569 61.7936 72.2941 61.8602 72.6146 61.9934C72.9351 62.1266 73.217 62.3153 73.4602 62.5595L79.3873 67.9565V78.3357ZM75.6402 67.9565L71.6033 64.4579H16.3508L12.3136 67.9565H75.6402ZM11.2193 78.3357H76.7345V70.6207H11.2193V78.3357Z" stroke="#F39C12" stroke-width="0.5" mask="url(#path-1-outside-1_1067_1719)"/>
</svg>
