<svg width="58" height="86" viewBox="0 0 58 86" fill="none" xmlns="http://www.w3.org/2000/svg">
<path fill-rule="evenodd" clip-rule="evenodd" d="M47.3541 25.9623V11.9258H38.7338V3.40691H26.6654V9.73585H23.2173V3.40691C23.2175 2.4703 23.555 1.66855 24.2299 1.00147C24.9051 0.334163 25.7172 0 26.6654 0H40.4579L50.8022 10.2223V25.9623H53.6799C55.2138 25.9624 56.2914 26.6131 56.9109 27.9145C57.5303 29.2159 57.3966 30.4584 56.5116 31.6415L34.5758 57.908L34.3555 82.4505C34.3555 83.4562 34.0152 84.2992 33.3366 84.9795C32.6581 85.6598 31.817 86 30.8139 86H26.9792C25.9761 86 25.135 85.6598 24.4565 84.9795C23.7779 84.2992 23.4391 83.4562 23.4391 82.4505V57.908L1.28153 31.6415C0.396495 30.4584 0.262801 29.2159 0.882208 27.9145C1.50173 26.6131 2.57926 25.9624 4.11323 25.9623H6.99088V19.066L16.1182 9.93868H28.2881C29.1247 9.93868 29.841 10.2366 30.4368 10.8324C31.0326 11.4282 31.3305 12.1445 31.3305 12.9811V17.0377H43.906V20.4446H31.3305V23.8531H43.906V25.9623H47.3541ZM28.2881 25.9623V12.9811H17.6395V20.5873H10.0333V25.9623H13.0758V25.1509H25.2456V25.9623H28.2881ZM28.8965 55.4234L49.9909 30.8302H7.8022L28.8965 55.4234Z" fill="#F39C12"/>
</svg>
