<svg width="96" height="97" viewBox="0 0 96 97" fill="none" xmlns="http://www.w3.org/2000/svg">
<path d="M48 88.5C42.4667 88.5 37.2667 87.45 32.4 85.35C27.5333 83.25 23.3 80.4 19.7 76.8C16.1 73.2 13.25 68.9667 11.15 64.1C9.05 59.2333 8 54.0333 8 48.5C8 42.9667 9.05 37.7667 11.15 32.9C13.25 28.0333 16.1 23.8 19.7 20.2C23.3 16.6 27.5333 13.75 32.4 11.65C37.2667 9.55 42.4667 8.5 48 8.5C53.5333 8.5 58.7333 9.55 63.6 11.65C68.4667 13.75 72.7 16.6 76.3 20.2C79.9 23.8 82.75 28.0333 84.85 32.9C86.95 37.7667 88 42.9667 88 48.5C88 54.0333 86.95 59.2333 84.85 64.1C82.75 68.9667 79.9 73.2 76.3 76.8C72.7 80.4 68.4667 83.25 63.6 85.35C58.7333 87.45 53.5333 88.5 48 88.5ZM48 80.5C51.6 80.5 55.0667 79.9167 58.4 78.75C61.7333 77.5833 64.8 75.9 67.6 73.7L22.8 28.9C20.6 31.7 18.9167 34.7667 17.75 38.1C16.5833 41.4333 16 44.9 16 48.5C16 57.4333 19.1 65 25.3 71.2C31.5 77.4 39.0667 80.5 48 80.5ZM73.2 68.1C75.4 65.3 77.0833 62.2333 78.25 58.9C79.4167 55.5667 80 52.1 80 48.5C80 39.5667 76.9 32 70.7 25.8C64.5 19.6 56.9333 16.5 48 16.5C44.4 16.5 40.9333 17.0833 37.6 18.25C34.2667 19.4167 31.2 21.1 28.4 23.3L73.2 68.1Z" fill="#2C3E50"/>
</svg>
