<svg width="96" height="97" viewBox="0 0 96 97" fill="none" xmlns="http://www.w3.org/2000/svg">
<path d="M42.4 66.9L70.6 38.7L65 33.1L42.4 55.7L31 44.3L25.4 49.9L42.4 66.9ZM48 88.5C42.4667 88.5 37.2667 87.45 32.4 85.35C27.5333 83.25 23.3 80.4 19.7 76.8C16.1 73.2 13.25 68.9667 11.15 64.1C9.05 59.2333 8 54.0333 8 48.5C8 42.9667 9.05 37.7667 11.15 32.9C13.25 28.0333 16.1 23.8 19.7 20.2C23.3 16.6 27.5333 13.75 32.4 11.65C37.2667 9.55 42.4667 8.5 48 8.5C53.5333 8.5 58.7333 9.55 63.6 11.65C68.4667 13.75 72.7 16.6 76.3 20.2C79.9 23.8 82.75 28.0333 84.85 32.9C86.95 37.7667 88 42.9667 88 48.5C88 54.0333 86.95 59.2333 84.85 64.1C82.75 68.9667 79.9 73.2 76.3 76.8C72.7 80.4 68.4667 83.25 63.6 85.35C58.7333 87.45 53.5333 88.5 48 88.5ZM48 80.5C56.9333 80.5 64.5 77.4 70.7 71.2C76.9 65 80 57.4333 80 48.5C80 39.5667 76.9 32 70.7 25.8C64.5 19.6 56.9333 16.5 48 16.5C39.0667 16.5 31.5 19.6 25.3 25.8C19.1 32 16 39.5667 16 48.5C16 57.4333 19.1 65 25.3 71.2C31.5 77.4 39.0667 80.5 48 80.5Z" fill="#F39C12"/>
</svg>
